<svg width="700" height="450" xmlns="http://www.w3.org/2000/svg">
    <defs>
        <marker id="force_arrow" markerWidth="10" markerHeight="10" refX="8" refY="3" orient="auto">
            <polygon points="0 0, 10 3, 0 6" fill="#E91E63"/>
        </marker>
        <marker id="force_arrow_blue" markerWidth="10" markerHeight="10" refX="8" refY="3" orient="auto">
            <polygon points="0 0, 10 3, 0 6" fill="#2196F3"/>
        </marker>
    </defs>
    
    <!-- 标题 -->
    <text x="350.0" y="40" text-anchor="middle" fill="#333" font-size="24" font-weight="bold">
        水平推力分析
    </text>
    
    <!-- 地面 -->
    <rect x="50" y="320" width="600" height="20" fill="#8D6E63"/>
    <line x1="50" y1="320" x2="650" y2="320" stroke="#5D4037" stroke-width="2"/>
    
    <!-- 物块 -->
    <rect x="280" y="240" width="80" height="80" rx="5" fill="#90CAF9" stroke="#1976D2" stroke-width="2"/>
    <text x="320" y="285" text-anchor="middle" fill="white" font-size="20" font-weight="bold">m</text>
    
    <!-- 推力F -->
    <line x1="200" y1="280" x2="270" y2="280" stroke="#E91E63" stroke-width="4" marker-end="url(#force_arrow)"/>
    <text x="235" y="265" fill="#E91E63" font-size="16" font-weight="bold">F</text>
    
    <!-- 摩擦力f -->
    <line x1="370" y1="280" x2="420" y2="280" stroke="#FF9800" stroke-width="3" marker-end="url(#force_arrow)"/>
    <text x="395" y="265" fill="#FF9800" font-size="14" font-weight="bold">f</text>
    
    <!-- 重力G -->
    <line x1="320" y1="320" x2="320" y2="380" stroke="#2196F3" stroke-width="4" marker-end="url(#force_arrow_blue)"/>
    <text x="340" y="365" fill="#2196F3" font-size="16" font-weight="bold">G = mg</text>
    
    <!-- 支持力N -->
    <line x1="320" y1="240" x2="320" y2="180" stroke="#4CAF50" stroke-width="4" marker-end="url(#force_arrow_blue)"/>
    <text x="340" y="200" fill="#4CAF50" font-size="16" font-weight="bold">N</text>
    
    <!-- 公式说明 -->
    <rect x="480" y="120" width="180" height="100" rx="8" fill="#F5F5F5" stroke="#DDD"/>
    <text x="570" y="150" text-anchor="middle" fill="#333" font-size="14" font-weight="bold">平衡条件：</text>
    <text x="570" y="175" text-anchor="middle" fill="#666" font-size="13">F = f</text>
    <text x="570" y="200" text-anchor="middle" fill="#666" font-size="13">N = G = mg</text>
    
    <!-- 底部说明 -->
    <text x="350.0" y="430" text-anchor="middle" fill="#999" font-size="13">
        受力分析图 • 标准力学模板
    </text>
</svg>