<svg viewBox="0 0 1000 600" xmlns="http://www.w3.org/2000/svg">
<!-- Generated by AtomicRenderer at 2026-04-10 12:57:03.886606 -->
<circle cx="100.0" cy="300.0" r="55.0" fill="#ff9800" stroke="#000000" stroke-width="0"/>
<text x="100.0" y="375.0" font-size="14" fill="#000000" text-anchor="middle">太阳</text>
<circle cx="250.0" cy="300.0" r="50.0" fill="#4caf50" stroke="#000000" stroke-width="0"/>
<text x="250.0" y="370.0" font-size="14" fill="#000000" text-anchor="middle">CO₂</text>
<circle cx="400.0" cy="300.0" r="50.0" fill="#4caf50" stroke="#000000" stroke-width="0"/>
<text x="400.0" y="370.0" font-size="14" fill="#000000" text-anchor="middle">H₂O</text>
<circle cx="550.0" cy="300.0" r="55.0" fill="#ff9800" stroke="#000000" stroke-width="0"/>
<text x="550.0" y="375.0" font-size="14" fill="#000000" text-anchor="middle">叶片</text>
<circle cx="700.0" cy="300.0" r="45.0" fill="#2196f3" stroke="#000000" stroke-width="0"/>
<text x="700.0" y="365.0" font-size="14" fill="#000000" text-anchor="middle">O₂</text>
<circle cx="850.0" cy="300.0" r="55.0" fill="#ff9800" stroke="#000000" stroke-width="0"/>
<text x="850.0" y="375.0" font-size="14" fill="#000000" text-anchor="middle">葡萄糖</text>
<line x1="150.0" y1="300.0" x2="500.0" y2="300.0" stroke="#666666" stroke-width="2"/>
<polygon points="500.0,300.0 491.33974596215563,305.0 491.33974596215563,295.0" fill="#666666"/>
<line x1="300.0" y1="300.0" x2="500.0" y2="300.0" stroke="#666666" stroke-width="2"/>
<polygon points="500.0,300.0 491.33974596215563,305.0 491.33974596215563,295.0" fill="#666666"/>
<line x1="450.0" y1="300.0" x2="500.0" y2="300.0" stroke="#666666" stroke-width="2"/>
<polygon points="500.0,300.0 491.33974596215563,305.0 491.33974596215563,295.0" fill="#666666"/>
<line x1="600.0" y1="300.0" x2="650.0" y2="300.0" stroke="#666666" stroke-width="2"/>
<polygon points="650.0,300.0 641.3397459621556,305.0 641.3397459621556,295.0" fill="#666666"/>
<line x1="600.0" y1="300.0" x2="800.0" y2="300.0" stroke="#666666" stroke-width="2"/>
<polygon points="800.0,300.0 791.3397459621556,305.0 791.3397459621556,295.0" fill="#666666"/>
</svg>